<?xml version="1.0" encoding="UTF-8"?>
<svg id="Layer_2" data-name="Layer 2" xmlns="http://www.w3.org/2000/svg" viewBox="0 0 474.84 668.54">
  <defs>
    <style>
      .cls-1 {
        fill: #333131;
      }
    </style>
  </defs>
  <g id="Layer_2-2" data-name="Layer 2">
    <g>
      <path class="cls-1" d="M230.19,578.93c15.83-8.06,31.63-16.16,47.48-24.17,24.51-12.38,48.16-26.46,74.08-36.03,41.73-15.39,96.38,4.31,115.19,41.97,15.52,31.09,7.57,70.41-18.57,91.82-19.56,16.02-60.01,21.14-80.63,10.22-3.01-1.59-5.67-3.53-7.24-6.64-1.17-2.31-.86-3.99,1.8-5.19,12.86-5.79,16.29-15.11,10.18-28.54-7.92-17.43-22.51-25.54-40.82-26.74-19.29-1.27-36.43,7.11-53.54,14.41-25.88,11.04-50.46,25.11-77.08,34.42-22.77,7.96-46.05,14.52-70.28,5.99-43.42-15.28-72.04-43.79-79.75-90.57-.48-2.93-.55-5.99-.29-8.95.3-3.38,2.38-4.97,5.92-4.24,30.45,6.33,55.83-2.04,76.06-25.91,13.18-15.56,25.07-31.96,34.42-50.15,2.83-5.51,3.38-8.69-4.55-9.69-35.08-4.42-67.62-16.01-97.03-35.9C29.43,400.61,7.28,367.57,1.35,323.74c-4.67-34.58,2.77-66.16,22.24-94.47,15.91-23.13,38.46-36.59,67.12-37.83,21.05-.91,41.12,2.06,58.55,15.58,22.74,17.64,31.96,51.74,20.49,78.03-2.43,5.58-6.25,10.23-11.18,13.84-1.75,1.28-3.79,2.4-5.99.88-2.22-1.53-1.93-3.79-1.17-5.88,8.05-22.16-14.31-32.28-29.65-28.13-27.85,7.54-44.96,25.9-50.59,53.6-5.87,28.85,4.89,52.91,27.76,70.46,41.54,31.86,88.36,38.28,137.02,21.16,30.96-10.89,50.32-36.25,64.54-65.17,11.12-22.63,15.04-46.03,4.46-69.88-6.33-14.27-16.42-24.78-33.54-25.18-11.85-.28-20.22,5.78-26.31,15.34-6.85,10.76-8.78,22.89-9.12,35.37-.86,31.04,2.77,61.51,12.04,91.21,1.31,4.19.27,6.39-3.63,8.27-17.97,8.67-36.99,11.85-56.76,11.54-3.37-.05-5-1.22-5.57-4.8-3.49-22.04-7.79-44.11-7.42-66.44.52-31.61,6.08-62.13,27.65-87.2,16.04-18.64,37.02-28.44,60.91-32.36,30.86-5.07,60.95-2.42,87.67,14.68,26.04,16.67,40.86,40.8,43.32,72.63,1.75,22.75.19,44.54-8.92,65.53-13.18,30.36-37.04,49.9-65.93,64.02-16.55,8.09-34.37,12.6-52.29,16.48-4.84,1.05-6.41,3.17-6.45,8.07-.2,27.54-1.4,54.92-11.71,81.09-4.82,12.23-11.76,23.06-18.71,34.76Z"/>
      <path class="cls-1" d="M254.61,0c34.96,1.37,68.21,9.36,96.82,29.85,26.15,18.73,40.97,44.82,40.36,77.93-.82,44.55-45.48,78.17-88.83,67.52-27.28-6.7-45.28-22.99-53.26-49.95-2.36-7.95-1.86-16.21-.18-24.27,1.01-4.85,4.08-6.3,7.79-2.44,11.29,11.74,24.68,12.62,38.51,6.56,13.24-5.8,20.53-19.93,18.58-35.68-2.03-16.36-13.31-26.65-27.83-31.07-27.48-8.36-54.29-7.22-77.6,12.72-22.11,18.92-26.49,56.58-10.56,80.75,14.87,22.56,37.74,33.7,60.49,45.06,22.48,11.22,46.54,19.09,68.32,31.84,4.43,2.6,8.52,5.79,12.65,8.87,1.39,1.03,3.35,2.44,2.1,4.47-1.08,1.74-3.06.64-4.58.16-15.44-4.8-30.9-9.46-47.31-9.49-21.45-.03-41.89,5.04-61.94,12.09-2.1.74-4.01,1.54-6.19.34-22.61-12.46-47.21-21.01-69.08-34.89-15.61-9.91-29.93-21.27-38.24-38.46-11.6-23.98-11.37-48.24.73-71.65C139.44,33.69,179.58,9.81,230.22,1.83c8.03-1.27,16.26-1.25,24.4-1.83Z"/>
    </g>
  </g>
</svg>